<?xml version="1.0" encoding="utf-8"?>
<!-- Generator: Adobe Illustrator 24.3.0, SVG Export Plug-In . SVG Version: 6.00 Build 0)  -->
<svg version="1.1" id="レイヤー_1" xmlns="http://www.w3.org/2000/svg" xmlns:xlink="http://www.w3.org/1999/xlink" x="0px"
	 y="0px" width="250px" height="45px" viewBox="0 0 250 45" enable-background="new 0 0 250 45" xml:space="preserve">
<g>
	<g>
		<path fill="#333333" d="M49.889,30.812l-0.018-0.447h5.143l0.036,0.307c0.343,3.119,2.491,5.072,5.468,5.072
			c3.014,0,4.909-2.035,4.909-5.099v-0.029c0-2.73-1.282-4.095-4.512-5.125l-2.743-0.836c-5.143-1.588-7.742-5.377-7.742-11.424
			v-0.028C50.43,5.848,54.581,1,60.356,1c6.027,0,9.727,4.653,9.98,11.701l0.018,0.529H65.21l-0.018-0.334
			c-0.271-3.148-2.147-5.071-4.836-5.071c-2.797,0.028-4.475,2.006-4.475,4.876v0.028c0,2.535,1.335,4.012,4.331,4.931l2.761,0.863
			c5.45,1.672,7.904,5.099,7.904,11.423v0.029c0,7.717-3.934,12.621-10.503,12.621C54.183,42.597,50.196,38.222,49.889,30.812z"/>
		<path fill="#333333" d="M77.342,31.313v-19.28h5.27v17.581c0,3.9,1.191,6.156,3.555,6.156c2.364,0,3.862-2.674,3.862-6.574V12.033
			h5.27V41.9h-5.27v-4.931H89.92c-0.993,3.427-2.977,5.544-5.901,5.544C79.76,42.513,77.342,38.306,77.342,31.313z"/>
		<path fill="#333333" d="M102.414,12.033h5.269v5.015h0.108c0.794-3.399,2.815-5.628,5.414-5.628c2.707,0,4.674,2.229,5.324,6.157
			h0.108c0.866-3.761,3.176-6.157,6.009-6.157c3.789,0,6.335,4.04,6.335,10.058V41.9h-5.27V23.512c0-3.455-1.119-5.35-3.158-5.35
			c-2.003,0-3.321,2.257-3.321,5.573V41.9h-5.071V23.261c0-3.203-1.173-5.098-3.122-5.098c-2.003,0-3.357,2.341-3.357,5.712V41.9
			h-5.269V12.033z"/>
		<path fill="#333333" d="M137.263,33.346v-0.055c0-5.433,2.725-8.609,7.526-9.082l4.782-0.447v-1.839
			c0-2.646-1.119-4.291-3.176-4.291c-1.967,0-3.158,1.421-3.41,3.343l-0.036,0.251h-4.818l0.018-0.335
			c0.289-5.516,3.357-9.472,8.464-9.472c4.999,0,8.229,3.984,8.229,10.002V41.9h-5.27v-4.458h-0.108
			c-1.1,3.066-3.158,4.933-5.703,4.933C139.88,42.374,137.263,38.613,137.263,33.346z M145.475,36.439
			c2.364,0,4.096-2.341,4.096-5.461v-2.145l-3.988,0.389c-2.039,0.195-3.104,1.533-3.104,3.65v0.056
			C142.479,35.13,143.652,36.439,145.475,36.439z"/>
		<path fill="#333333" d="M161.216,26.966v-0.026c0-9.724,2.996-15.519,7.869-15.519c2.743,0,4.908,2.173,5.955,5.795h0.108V1.696
			h5.27V41.9h-5.27v-5.098h-0.108c-1.028,3.537-3.158,5.711-5.955,5.711C164.212,42.513,161.216,36.662,161.216,26.966z
			 M175.167,26.966v-0.026c0-5.378-1.769-8.777-4.313-8.777c-2.617,0-4.278,3.316-4.278,8.777v0.026
			c0,5.434,1.642,8.804,4.278,8.804C173.416,35.77,175.167,32.371,175.167,26.966z"/>
		<path fill="#333333" d="M186.92,26.966v-0.055c0-9.612,3.79-15.49,9.565-15.49c5.793,0,9.6,5.823,9.6,15.49v0.055
			c0,9.753-3.736,15.547-9.583,15.547C190.619,42.513,186.92,36.689,186.92,26.966z M200.726,26.966v-0.055
			c0-5.767-1.679-9.111-4.241-9.111c-2.544,0-4.205,3.343-4.205,9.111v0.055c0,5.851,1.642,9.167,4.241,9.167
			C199.083,36.133,200.726,32.789,200.726,26.966z"/>
		<path fill="#333333" d="M212.479,12.033h5.269v5.21h0.108c0.577-3.678,2.148-5.823,4.404-5.823c0.577,0,1.119,0.139,1.516,0.307
			v7.16c-0.433-0.278-1.155-0.445-1.913-0.445c-2.598,0-4.115,2.396-4.115,6.743V41.9h-5.269V12.033z"/>
		<path fill="#333333" d="M228.423,33.346v-0.055c0-5.433,2.725-8.609,7.526-9.082l4.782-0.447v-1.839
			c0-2.646-1.119-4.291-3.176-4.291c-1.968,0-3.159,1.421-3.411,3.343l-0.036,0.251h-4.818l0.018-0.335
			c0.289-5.516,3.357-9.472,8.464-9.472c4.999,0,8.229,3.984,8.229,10.002V41.9h-5.27v-4.458h-0.108
			c-1.1,3.066-3.158,4.933-5.703,4.933C231.039,42.374,228.423,38.613,228.423,33.346z M236.634,36.439
			c2.364,0,4.096-2.341,4.096-5.461v-2.145l-3.989,0.389c-2.039,0.195-3.104,1.533-3.104,3.65v0.056
			C233.638,35.13,234.811,36.439,236.634,36.439z"/>
	</g>
	<path fill="#4193AB" d="M24.123,44L24.123,44C13.009,44,4,34.69,4,23.206S13.009,2.411,24.123,2.411h0
		c11.113,0,20.123,9.31,20.123,20.794S35.236,44,24.123,44z"/>
	<path fill="#FFFFFF" d="M24.868,3.753h-1.491c-1.381,0-2.5,1.119-2.5,2.5v1.708c0,1.381,1.119,2.5,2.5,2.5h1.491
		c1.381,0,2.5-1.119,2.5-2.5V6.253C27.368,4.872,26.249,3.753,24.868,3.753z"/>
	<path fill="#FFFFFF" d="M24.868,35.951h-1.491c-1.381,0-2.5,1.119-2.5,2.5v1.708c0,1.381,1.119,2.5,2.5,2.5h1.491
		c1.381,0,2.5-1.119,2.5-2.5v-1.708C27.368,37.07,26.249,35.951,24.868,35.951z"/>
	<path fill="#FFFFFF" d="M9.289,19.852H7.798c-1.381,0-2.5,1.119-2.5,2.5v1.708c0,1.381,1.119,2.5,2.5,2.5h1.491
		c1.381,0,2.5-1.119,2.5-2.5v-1.708C11.789,20.971,10.67,19.852,9.289,19.852z"/>
	<path fill="#FFFFFF" d="M40.447,19.852h-1.491c-1.381,0-2.5,1.119-2.5,2.5v1.708c0,1.381,1.119,2.5,2.5,2.5h1.491
		c1.381,0,2.5-1.119,2.5-2.5v-1.708C42.947,20.971,41.828,19.852,40.447,19.852z"/>
	<path fill="#FFFFFF" d="M24.868,19.852h-1.491c-1.381,0-2.5,1.119-2.5,2.5v1.708c0,1.381,1.119,2.5,2.5,2.5h1.491
		c1.381,0,2.5-1.119,2.5-2.5v-1.708C27.368,20.971,26.249,19.852,24.868,19.852z"/>
</g>
<line fill="none" x1="125" y1="-80" x2="125" y2="-80"/>
</svg>
